<svg width="354" height="102" viewBox="0 0 354 102" fill="none" xmlns="http://www.w3.org/2000/svg">
<path d="M94.9101 36.83L99.1261 13.472C99.1487 13.3813 99.2054 13.336 99.2961 13.336H104.226C104.317 13.336 104.373 13.3813 104.396 13.472L108.442 36.83C108.465 36.9433 108.419 37 108.306 37H104.532C104.441 37 104.385 36.9433 104.362 36.83L103.988 34.348H99.3641L98.9901 36.83C98.9674 36.9433 98.9107 37 98.8201 37H95.0461C94.9554 37 94.9101 36.9433 94.9101 36.83ZM100.044 30.71H103.308L101.914 21.156L101.71 19.898L101.574 21.156L100.044 30.71ZM110.712 37C110.621 37 110.576 36.9433 110.576 36.83L110.644 13.472C110.644 13.3813 110.689 13.336 110.78 13.336H117.648C118.872 13.336 119.994 13.642 121.014 14.254C122.056 14.8433 122.884 15.648 123.496 16.668C124.108 17.6653 124.414 18.7987 124.414 20.068C124.414 20.9067 124.289 21.666 124.04 22.346C123.79 23.0033 123.496 23.57 123.156 24.046C122.816 24.4993 122.51 24.8393 122.238 25.066C123.462 26.426 124.074 28.024 124.074 29.86L124.108 36.83C124.108 36.9433 124.051 37 123.938 37H120.096C120.005 37 119.96 36.966 119.96 36.898V29.86C119.96 29.044 119.665 28.3413 119.076 27.752C118.509 27.14 117.806 26.834 116.968 26.834H114.724L114.69 36.83C114.69 36.9433 114.644 37 114.554 37H110.712ZM114.724 22.754H117.648C118.35 22.754 118.974 22.4933 119.518 21.972C120.062 21.4507 120.334 20.816 120.334 20.068C120.334 19.3427 120.062 18.7193 119.518 18.198C118.996 17.6767 118.373 17.416 117.648 17.416H114.724V22.754ZM129.714 37C129.623 37 129.578 36.9433 129.578 36.83V17.45H125.158C125.045 17.45 124.988 17.3933 124.988 17.28L125.022 13.472C125.022 13.3813 125.067 13.336 125.158 13.336H138.078C138.191 13.336 138.248 13.3813 138.248 13.472V17.28C138.248 17.3933 138.203 17.45 138.112 17.45H133.658L133.692 36.83C133.692 36.9433 133.647 37 133.556 37H129.714ZM145.11 37C145.02 37 144.974 36.9433 144.974 36.83L145.008 13.472C145.008 13.3813 145.054 13.336 145.144 13.336H156.058C156.149 13.336 156.194 13.3927 156.194 13.506V17.314C156.194 17.4047 156.149 17.45 156.058 17.45H149.088V22.754H156.058C156.149 22.754 156.194 22.7993 156.194 22.89L156.228 26.732C156.228 26.8227 156.183 26.868 156.092 26.868H149.088V32.818H156.092C156.183 32.818 156.228 32.8747 156.228 32.988V36.864C156.228 36.9547 156.183 37 156.092 37H145.11ZM162.652 37C162.561 37 162.516 36.9433 162.516 36.83V17.45H158.096C157.982 17.45 157.926 17.3933 157.926 17.28L157.96 13.472C157.96 13.3813 158.005 13.336 158.096 13.336H171.016C171.129 13.336 171.186 13.3813 171.186 13.472V17.28C171.186 17.3933 171.14 17.45 171.05 17.45H166.596L166.63 36.83C166.63 36.9433 166.584 37 166.494 37H162.652ZM184.202 37.34C182.978 37.34 181.856 37.034 180.836 36.422C179.838 35.7873 179.034 34.96 178.422 33.94C177.81 32.8973 177.504 31.7527 177.504 30.506L177.538 19.728C177.538 18.4813 177.832 17.348 178.422 16.328C179.034 15.308 179.85 14.492 180.87 13.88C181.89 13.268 183 12.962 184.202 12.962C185.426 12.962 186.536 13.268 187.534 13.88C188.531 14.492 189.324 15.308 189.914 16.328C190.526 17.348 190.832 18.4813 190.832 19.728L190.866 30.506C190.866 31.7527 190.56 32.8973 189.948 33.94C189.358 34.96 188.554 35.7873 187.534 36.422C186.536 37.034 185.426 37.34 184.202 37.34ZM184.202 33.226C184.882 33.226 185.471 32.954 185.97 32.41C186.491 31.8433 186.752 31.2087 186.752 30.506L186.718 19.728C186.718 18.98 186.48 18.3453 186.004 17.824C185.528 17.3027 184.927 17.042 184.202 17.042C183.499 17.042 182.898 17.3027 182.4 17.824C181.901 18.3227 181.652 18.9573 181.652 19.728V30.506C181.652 31.254 181.901 31.9 182.4 32.444C182.898 32.9653 183.499 33.226 184.202 33.226ZM193.587 37C193.496 37 193.451 36.9433 193.451 36.83L193.519 13.472C193.519 13.3813 193.564 13.336 193.655 13.336H200.523C201.747 13.336 202.869 13.642 203.889 14.254C204.931 14.8433 205.759 15.648 206.371 16.668C206.983 17.6653 207.289 18.7987 207.289 20.068C207.289 20.9067 207.164 21.666 206.915 22.346C206.665 23.0033 206.371 23.57 206.031 24.046C205.691 24.4993 205.385 24.8393 205.113 25.066C206.337 26.426 206.949 28.024 206.949 29.86L206.983 36.83C206.983 36.9433 206.926 37 206.813 37H202.971C202.88 37 202.835 36.966 202.835 36.898V29.86C202.835 29.044 202.54 28.3413 201.951 27.752C201.384 27.14 200.681 26.834 199.843 26.834H197.599L197.565 36.83C197.565 36.9433 197.519 37 197.429 37H193.587ZM197.599 22.754H200.523C201.225 22.754 201.849 22.4933 202.393 21.972C202.937 21.4507 203.209 20.816 203.209 20.068C203.209 19.3427 202.937 18.7193 202.393 18.198C201.871 17.6767 201.248 17.416 200.523 17.416H197.599V22.754ZM210.023 37C209.91 37 209.853 36.9433 209.853 36.83L209.887 13.472C209.887 13.3813 209.932 13.336 210.023 13.336H213.831C213.922 13.336 213.967 13.3813 213.967 13.472L214.001 36.83C214.001 36.9433 213.956 37 213.865 37H210.023ZM217.128 37C217.037 37 216.992 36.9433 216.992 36.83L217.026 13.472C217.026 13.3813 217.071 13.336 217.162 13.336H228.076C228.167 13.336 228.212 13.3927 228.212 13.506V17.314C228.212 17.4047 228.167 17.45 228.076 17.45H221.106V22.754H228.076C228.167 22.754 228.212 22.7993 228.212 22.89L228.246 26.732C228.246 26.8227 228.201 26.868 228.11 26.868H221.106V32.818H228.11C228.201 32.818 228.246 32.8747 228.246 32.988V36.864C228.246 36.9547 228.201 37 228.11 37H217.128ZM231.575 37C231.394 37 231.303 36.9207 231.303 36.762L231.269 13.608C231.269 13.4267 231.36 13.336 231.541 13.336H234.601L240.347 26.732L240.177 13.608C240.177 13.4267 240.279 13.336 240.483 13.336H243.849C243.985 13.336 244.053 13.4267 244.053 13.608L244.087 36.796C244.087 36.932 244.031 37 243.917 37H240.925L235.043 24.488L235.281 36.728C235.281 36.9093 235.179 37 234.975 37H231.575ZM250.441 37C250.35 37 250.305 36.9433 250.305 36.83V17.45H245.885C245.771 17.45 245.715 17.3933 245.715 17.28L245.749 13.472C245.749 13.3813 245.794 13.336 245.885 13.336H258.805C258.918 13.336 258.975 13.3813 258.975 13.472V17.28C258.975 17.3933 258.929 17.45 258.839 17.45H254.385L254.419 36.83C254.419 36.9433 254.373 37 254.283 37H250.441ZM1.72336 88C1.61003 88 1.55336 87.9433 1.55336 87.83L1.62136 64.472C1.62136 64.3813 1.66669 64.336 1.75736 64.336L8.11536 64.302C9.36203 64.2793 10.4954 64.574 11.5154 65.186C12.558 65.798 13.3854 66.6253 13.9974 67.668C14.6094 68.688 14.9154 69.8213 14.9154 71.068V80.826C14.9154 82.1407 14.598 83.342 13.9634 84.43C13.3287 85.4953 12.4787 86.3453 11.4134 86.98C10.348 87.6147 9.14669 87.9433 7.80936 87.966L1.72336 88ZM5.70136 83.818H7.80936C8.64803 83.818 9.35069 83.5233 9.91736 82.934C10.5067 82.3447 10.8014 81.642 10.8014 80.826V71.034C10.8014 70.3087 10.5294 69.6853 9.98536 69.164C9.46403 68.62 8.84069 68.3593 8.11536 68.382L5.73536 68.416L5.70136 83.818ZM17.7265 88C17.6358 88 17.5905 87.9433 17.5905 87.83L17.6245 64.472C17.6245 64.3813 17.6698 64.336 17.7605 64.336H28.6745C28.7651 64.336 28.8105 64.3927 28.8105 64.506V68.314C28.8105 68.4047 28.7651 68.45 28.6745 68.45H21.7045V73.754H28.6745C28.7651 73.754 28.8105 73.7993 28.8105 73.89L28.8445 77.732C28.8445 77.8227 28.7991 77.868 28.7085 77.868H21.7045V83.818H28.7085C28.7991 83.818 28.8445 83.8747 28.8445 83.988V87.864C28.8445 87.9547 28.7991 88 28.7085 88H17.7265ZM21.0925 62.602C20.9791 62.602 20.9338 62.5567 20.9565 62.466L23.6765 56.584C23.6991 56.4933 23.7558 56.448 23.8465 56.448H27.7225C27.8585 56.448 27.9038 56.4933 27.8585 56.584L24.6965 62.466C24.6511 62.5567 24.5831 62.602 24.4925 62.602H21.0925ZM37.5926 88.34C36.3459 88.34 35.2126 88.034 34.1926 87.422C33.1952 86.7873 32.4019 85.9487 31.8126 84.906C31.2232 83.8633 30.9286 82.696 30.9286 81.404L30.9626 70.796C30.9626 69.5493 31.2459 68.416 31.8126 67.396C32.4019 66.3533 33.1952 65.526 34.1926 64.914C35.2126 64.2793 36.3459 63.962 37.5926 63.962C38.8392 63.962 39.9612 64.268 40.9586 64.88C41.9559 65.492 42.7492 66.3193 43.3386 67.362C43.9279 68.382 44.2226 69.5267 44.2226 70.796V72.36C44.2226 72.4507 44.1772 72.496 44.0866 72.496H40.2786C40.1879 72.496 40.1426 72.4507 40.1426 72.36V70.796C40.1426 70.048 39.8932 69.402 39.3946 68.858C38.9186 68.314 38.3179 68.042 37.5926 68.042C36.7766 68.042 36.1532 68.3253 35.7226 68.892C35.2919 69.436 35.0766 70.0707 35.0766 70.796V81.404C35.0766 82.2427 35.3146 82.9227 35.7906 83.444C36.2892 83.9653 36.8899 84.226 37.5926 84.226C38.3179 84.226 38.9186 83.9427 39.3946 83.376C39.8932 82.7867 40.1426 82.1293 40.1426 81.404V79.84C40.1426 79.7493 40.1879 79.704 40.2786 79.704H44.1206C44.2112 79.704 44.2566 79.7493 44.2566 79.84V81.404C44.2566 82.696 43.9506 83.8633 43.3386 84.906C42.7492 85.9487 41.9559 86.7873 40.9586 87.422C39.9612 88.034 38.8392 88.34 37.5926 88.34ZM53.0328 88.34C51.8088 88.34 50.6868 88.034 49.6668 87.422C48.6695 86.7873 47.8648 85.96 47.2528 84.94C46.6408 83.8973 46.3348 82.7527 46.3348 81.506L46.3688 70.728C46.3688 69.4813 46.6635 68.348 47.2528 67.328C47.8648 66.308 48.6808 65.492 49.7008 64.88C50.7208 64.268 51.8315 63.962 53.0328 63.962C54.2568 63.962 55.3675 64.268 56.3648 64.88C57.3621 65.492 58.1555 66.308 58.7448 67.328C59.3568 68.348 59.6628 69.4813 59.6628 70.728L59.6968 81.506C59.6968 82.7527 59.3908 83.8973 58.7788 84.94C58.1895 85.96 57.3848 86.7873 56.3648 87.422C55.3675 88.034 54.2568 88.34 53.0328 88.34ZM53.0328 84.226C53.7128 84.226 54.3021 83.954 54.8008 83.41C55.3221 82.8433 55.5828 82.2087 55.5828 81.506L55.5488 70.728C55.5488 69.98 55.3108 69.3453 54.8348 68.824C54.3588 68.3027 53.7581 68.042 53.0328 68.042C52.3301 68.042 51.7295 68.3027 51.2308 68.824C50.7321 69.3227 50.4828 69.9573 50.4828 70.728V81.506C50.4828 82.254 50.7321 82.9 51.2308 83.444C51.7295 83.9653 52.3301 84.226 53.0328 84.226ZM68.7371 88.34C67.5358 88.34 66.4251 88.034 65.4051 87.422C64.3851 86.7873 63.5691 85.9487 62.9571 84.906C62.3678 83.8633 62.0731 82.7187 62.0731 81.472L62.1411 64.472C62.1411 64.3813 62.1864 64.336 62.2771 64.336H66.0851C66.1758 64.336 66.2211 64.3813 66.2211 64.472V81.472C66.2211 82.2427 66.4591 82.9 66.9351 83.444C67.4338 83.9653 68.0344 84.226 68.7371 84.226C69.4624 84.226 70.0631 83.9653 70.5391 83.444C71.0378 82.9 71.2871 82.2427 71.2871 81.472V64.472C71.2871 64.3813 71.3324 64.336 71.4231 64.336H75.2311C75.3218 64.336 75.3671 64.3813 75.3671 64.472L75.4351 81.472C75.4351 82.7413 75.1291 83.8973 74.5171 84.94C73.9278 85.9827 73.1231 86.81 72.1031 87.422C71.1058 88.034 69.9838 88.34 68.7371 88.34ZM81.9278 88C81.8371 88 81.7804 87.9433 81.7578 87.83L77.0658 64.472C77.0431 64.3813 77.0884 64.336 77.2018 64.336H81.0438C81.1344 64.336 81.1911 64.3813 81.2138 64.472L84.0018 80.044L86.7218 64.472C86.7444 64.3813 86.8011 64.336 86.8918 64.336H90.6998C90.8131 64.336 90.8584 64.3813 90.8358 64.472L86.2118 87.83C86.1891 87.9433 86.1324 88 86.0418 88H81.9278ZM92.9648 88C92.8741 88 92.8288 87.9433 92.8288 87.83L92.8968 64.472C92.8968 64.3813 92.9421 64.336 93.0328 64.336H99.9008C101.125 64.336 102.247 64.642 103.267 65.254C104.309 65.8433 105.137 66.648 105.749 67.668C106.361 68.6653 106.667 69.7987 106.667 71.068C106.667 71.9067 106.542 72.666 106.293 73.346C106.043 74.0033 105.749 74.57 105.409 75.046C105.069 75.4993 104.763 75.8393 104.491 76.066C105.715 77.426 106.327 79.024 106.327 80.86L106.361 87.83C106.361 87.9433 106.304 88 106.191 88H102.349C102.258 88 102.213 87.966 102.213 87.898V80.86C102.213 80.044 101.918 79.3413 101.329 78.752C100.762 78.14 100.059 77.834 99.2208 77.834H96.9768L96.9428 87.83C96.9428 87.9433 96.8974 88 96.8068 88H92.9648ZM96.9768 73.754H99.9008C100.603 73.754 101.227 73.4933 101.771 72.972C102.315 72.4507 102.587 71.816 102.587 71.068C102.587 70.3427 102.315 69.7193 101.771 69.198C101.249 68.6767 100.626 68.416 99.9008 68.416H96.9768V73.754ZM109.367 88C109.276 88 109.231 87.9433 109.231 87.83L109.265 64.472C109.265 64.3813 109.31 64.336 109.401 64.336H120.315C120.406 64.336 120.451 64.3927 120.451 64.506V68.314C120.451 68.4047 120.406 68.45 120.315 68.45H113.345V73.754H120.315C120.406 73.754 120.451 73.7993 120.451 73.89L120.485 77.732C120.485 77.8227 120.44 77.868 120.349 77.868H113.345V83.818H120.349C120.44 83.818 120.485 83.8747 120.485 83.988V87.864C120.485 87.9547 120.44 88 120.349 88H109.367ZM122.59 88C122.477 88 122.42 87.9433 122.42 87.83L122.454 84.124L130.784 68.212H122.896C122.806 68.212 122.76 68.1667 122.76 68.076V64.506C122.76 64.3927 122.806 64.336 122.896 64.336H135.204C135.318 64.336 135.374 64.3927 135.374 64.506V68.178L127.078 84.022H135.272C135.363 84.022 135.408 84.0787 135.408 84.192L135.442 87.83C135.442 87.9433 135.386 88 135.272 88H122.59ZM142.939 88C142.758 88 142.667 87.9207 142.667 87.762L142.633 64.608C142.633 64.4267 142.724 64.336 142.905 64.336H145.965L151.711 77.732L151.541 64.608C151.541 64.4267 151.643 64.336 151.847 64.336H155.213C155.349 64.336 155.417 64.4267 155.417 64.608L155.451 87.796C155.451 87.932 155.395 88 155.281 88H152.289L146.407 75.488L146.645 87.728C146.645 87.9093 146.543 88 146.339 88H142.939ZM164.695 88.34C163.471 88.34 162.349 88.034 161.329 87.422C160.332 86.7873 159.527 85.96 158.915 84.94C158.303 83.8973 157.997 82.7527 157.997 81.506L158.031 70.728C158.031 69.4813 158.326 68.348 158.915 67.328C159.527 66.308 160.343 65.492 161.363 64.88C162.383 64.268 163.494 63.962 164.695 63.962C165.919 63.962 167.03 64.268 168.027 64.88C169.024 65.492 169.818 66.308 170.407 67.328C171.019 68.348 171.325 69.4813 171.325 70.728L171.359 81.506C171.359 82.7527 171.053 83.8973 170.441 84.94C169.852 85.96 169.047 86.7873 168.027 87.422C167.03 88.034 165.919 88.34 164.695 88.34ZM164.695 84.226C165.375 84.226 165.964 83.954 166.463 83.41C166.984 82.8433 167.245 82.2087 167.245 81.506L167.211 70.728C167.211 69.98 166.973 69.3453 166.497 68.824C166.021 68.3027 165.42 68.042 164.695 68.042C163.992 68.042 163.392 68.3027 162.893 68.824C162.394 69.3227 162.145 69.9573 162.145 70.728V81.506C162.145 82.254 162.394 82.9 162.893 83.444C163.392 83.9653 163.992 84.226 164.695 84.226ZM176.912 88C176.822 88 176.776 87.9433 176.776 87.83V68.45H172.356C172.243 68.45 172.186 68.3933 172.186 68.28L172.22 64.472C172.22 64.3813 172.266 64.336 172.356 64.336H185.276C185.39 64.336 185.446 64.3813 185.446 64.472V68.28C185.446 68.3933 185.401 68.45 185.31 68.45H180.856L180.89 87.83C180.89 87.9433 180.845 88 180.754 88H176.912ZM187.262 88C187.171 88 187.126 87.9433 187.126 87.83L187.194 64.472C187.194 64.3813 187.239 64.336 187.33 64.336H194.198C195.422 64.336 196.544 64.642 197.564 65.254C198.606 65.8433 199.434 66.648 200.046 67.668C200.658 68.6653 200.964 69.7987 200.964 71.068C200.964 71.9067 200.839 72.666 200.59 73.346C200.34 74.0033 200.046 74.57 199.706 75.046C199.366 75.4993 199.06 75.8393 198.788 76.066C200.012 77.426 200.624 79.024 200.624 80.86L200.658 87.83C200.658 87.9433 200.601 88 200.488 88H196.646C196.555 88 196.51 87.966 196.51 87.898V80.86C196.51 80.044 196.215 79.3413 195.626 78.752C195.059 78.14 194.356 77.834 193.518 77.834H191.274L191.24 87.83C191.24 87.9433 191.194 88 191.104 88H187.262ZM191.274 73.754H194.198C194.9 73.754 195.524 73.4933 196.068 72.972C196.612 72.4507 196.884 71.816 196.884 71.068C196.884 70.3427 196.612 69.7193 196.068 69.198C195.546 68.6767 194.923 68.416 194.198 68.416H191.274V73.754ZM203.664 88C203.573 88 203.528 87.9433 203.528 87.83L203.562 64.472C203.562 64.3813 203.607 64.336 203.698 64.336H214.612C214.703 64.336 214.748 64.3927 214.748 64.506V68.314C214.748 68.4047 214.703 68.45 214.612 68.45H207.642V73.754H214.612C214.703 73.754 214.748 73.7993 214.748 73.89L214.782 77.732C214.782 77.8227 214.737 77.868 214.646 77.868H207.642V83.818H214.646C214.737 83.818 214.782 83.8747 214.782 83.988V87.864C214.782 87.9547 214.737 88 214.646 88H203.664ZM222.988 88C222.898 88 222.852 87.9433 222.852 87.83L222.886 64.472C222.886 64.3813 222.932 64.336 223.022 64.336H233.936C234.027 64.336 234.072 64.3927 234.072 64.506V68.314C234.072 68.4047 234.027 68.45 233.936 68.45H226.966V73.754H233.936C234.027 73.754 234.072 73.7993 234.072 73.89L234.106 77.732C234.106 77.8227 234.061 77.868 233.97 77.868H226.966V83.818H233.97C234.061 83.818 234.106 83.8747 234.106 83.988V87.864C234.106 87.9547 234.061 88 233.97 88H222.988ZM235.345 88C235.254 88 235.22 87.9433 235.243 87.83L239.119 75.692L235.311 64.472C235.288 64.3813 235.322 64.336 235.413 64.336H239.221C239.334 64.336 239.402 64.3813 239.425 64.472L241.703 72.564L244.015 64.472C244.038 64.3813 244.106 64.336 244.219 64.336H247.993C248.084 64.336 248.118 64.3813 248.095 64.472L244.287 75.658L248.129 87.83C248.174 87.9433 248.14 88 248.027 88H244.219C244.128 88 244.06 87.9433 244.015 87.83L241.703 79.058L239.357 87.83C239.334 87.9433 239.266 88 239.153 88H235.345ZM250.315 88C250.202 88 250.145 87.9433 250.145 87.83L250.213 64.472C250.213 64.3813 250.258 64.336 250.349 64.336H256.877C258.962 64.336 260.606 64.9707 261.807 66.24C263.031 67.5093 263.643 69.232 263.643 71.408C263.643 73.0173 263.326 74.4113 262.691 75.59C262.056 76.7687 261.229 77.6753 260.209 78.31C259.189 78.9447 258.078 79.262 256.877 79.262H254.293V87.83C254.293 87.9433 254.236 88 254.123 88H250.315ZM254.293 75.148H256.877C257.602 75.148 258.226 74.808 258.747 74.128C259.291 73.4253 259.563 72.5187 259.563 71.408C259.563 70.524 259.325 69.7987 258.849 69.232C258.373 68.6653 257.716 68.382 256.877 68.382L254.293 68.416V75.148ZM271.908 88.34C270.684 88.34 269.562 88.034 268.542 87.422C267.544 86.7873 266.74 85.96 266.128 84.94C265.516 83.8973 265.21 82.7527 265.21 81.506L265.244 70.728C265.244 69.4813 265.538 68.348 266.128 67.328C266.74 66.308 267.556 65.492 268.576 64.88C269.596 64.268 270.706 63.962 271.908 63.962C273.132 63.962 274.242 64.268 275.24 64.88C276.237 65.492 277.03 66.308 277.62 67.328C278.232 68.348 278.538 69.4813 278.538 70.728L278.572 81.506C278.572 82.7527 278.266 83.8973 277.654 84.94C277.064 85.96 276.26 86.7873 275.24 87.422C274.242 88.034 273.132 88.34 271.908 88.34ZM271.908 84.226C272.588 84.226 273.177 83.954 273.676 83.41C274.197 82.8433 274.458 82.2087 274.458 81.506L274.424 70.728C274.424 69.98 274.186 69.3453 273.71 68.824C273.234 68.3027 272.633 68.042 271.908 68.042C271.205 68.042 270.604 68.3027 270.106 68.824C269.607 69.3227 269.358 69.9573 269.358 70.728V81.506C269.358 82.254 269.607 82.9 270.106 83.444C270.604 83.9653 271.205 84.226 271.908 84.226ZM286.937 88.34C285.713 88.34 284.591 88.034 283.571 87.422C282.574 86.7873 281.769 85.96 281.157 84.94C280.568 83.8973 280.273 82.7527 280.273 81.506V79.942C280.273 79.8287 280.33 79.772 280.443 79.772H284.251C284.342 79.772 284.387 79.8287 284.387 79.942V81.506C284.387 82.254 284.636 82.9 285.135 83.444C285.634 83.9653 286.234 84.226 286.937 84.226C287.64 84.226 288.24 83.954 288.739 83.41C289.238 82.866 289.487 82.2313 289.487 81.506C289.487 80.6673 288.943 79.942 287.855 79.33C287.492 79.126 286.926 78.8087 286.155 78.378C285.384 77.9473 284.659 77.5393 283.979 77.154C282.732 76.4287 281.803 75.522 281.191 74.434C280.602 73.3233 280.307 72.0767 280.307 70.694C280.307 69.4247 280.613 68.2913 281.225 67.294C281.837 66.274 282.642 65.4693 283.639 64.88C284.659 64.2907 285.758 63.996 286.937 63.996C288.138 63.996 289.238 64.302 290.235 64.914C291.255 65.5033 292.06 66.308 292.649 67.328C293.261 68.3253 293.567 69.4473 293.567 70.694V73.482C293.567 73.5727 293.522 73.618 293.431 73.618H289.623C289.532 73.618 289.487 73.5727 289.487 73.482L289.453 70.694C289.453 69.9007 289.204 69.2547 288.705 68.756C288.206 68.2573 287.617 68.008 286.937 68.008C286.234 68.008 285.634 68.28 285.135 68.824C284.636 69.3453 284.387 69.9687 284.387 70.694C284.387 71.442 284.546 72.0653 284.863 72.564C285.18 73.0627 285.758 73.5387 286.597 73.992C286.71 74.06 286.926 74.1847 287.243 74.366C287.583 74.5247 287.946 74.7173 288.331 74.944C288.716 75.148 289.056 75.3293 289.351 75.488C289.668 75.6467 289.861 75.7487 289.929 75.794C291.062 76.4287 291.958 77.2107 292.615 78.14C293.272 79.0467 293.601 80.1687 293.601 81.506C293.601 82.798 293.295 83.9653 292.683 85.008C292.094 86.028 291.289 86.844 290.269 87.456C289.272 88.0453 288.161 88.34 286.937 88.34ZM296.135 88C296.022 88 295.965 87.9433 295.965 87.83L295.999 64.472C295.999 64.3813 296.045 64.336 296.135 64.336H299.943C300.034 64.336 300.079 64.3813 300.079 64.472L300.113 87.83C300.113 87.9433 300.068 88 299.977 88H296.135ZM306.504 88C306.413 88 306.368 87.9433 306.368 87.83V68.45H301.948C301.835 68.45 301.778 68.3933 301.778 68.28L301.812 64.472C301.812 64.3813 301.857 64.336 301.948 64.336H314.868C314.981 64.336 315.038 64.3813 315.038 64.472V68.28C315.038 68.3933 314.993 68.45 314.902 68.45H310.448L310.482 87.83C310.482 87.9433 310.437 88 310.346 88H306.504ZM316.887 88C316.774 88 316.717 87.9433 316.717 87.83L316.751 64.472C316.751 64.3813 316.797 64.336 316.887 64.336H320.695C320.786 64.336 320.831 64.3813 320.831 64.472L320.865 87.83C320.865 87.9433 320.82 88 320.729 88H316.887ZM330.146 88.34C328.922 88.34 327.8 88.034 326.78 87.422C325.783 86.7873 324.978 85.96 324.366 84.94C323.754 83.8973 323.448 82.7527 323.448 81.506L323.482 70.728C323.482 69.4813 323.777 68.348 324.366 67.328C324.978 66.308 325.794 65.492 326.814 64.88C327.834 64.268 328.945 63.962 330.146 63.962C331.37 63.962 332.481 64.268 333.478 64.88C334.475 65.492 335.269 66.308 335.858 67.328C336.47 68.348 336.776 69.4813 336.776 70.728L336.81 81.506C336.81 82.7527 336.504 83.8973 335.892 84.94C335.303 85.96 334.498 86.7873 333.478 87.422C332.481 88.034 331.37 88.34 330.146 88.34ZM330.146 84.226C330.826 84.226 331.415 83.954 331.914 83.41C332.435 82.8433 332.696 82.2087 332.696 81.506L332.662 70.728C332.662 69.98 332.424 69.3453 331.948 68.824C331.472 68.3027 330.871 68.042 330.146 68.042C329.443 68.042 328.843 68.3027 328.344 68.824C327.845 69.3227 327.596 69.9573 327.596 70.728V81.506C327.596 82.254 327.845 82.9 328.344 83.444C328.843 83.9653 329.443 84.226 330.146 84.226ZM339.701 88C339.52 88 339.429 87.9207 339.429 87.762L339.395 64.608C339.395 64.4267 339.486 64.336 339.667 64.336H342.727L348.473 77.732L348.303 64.608C348.303 64.4267 348.405 64.336 348.609 64.336H351.975C352.111 64.336 352.179 64.4267 352.179 64.608L352.213 87.796C352.213 87.932 352.156 88 352.043 88H349.051L343.169 75.488L343.407 87.728C343.407 87.9093 343.305 88 343.101 88H339.701Z" fill="white"/>
</svg>
