<svg width="160" height="52" viewBox="0 0 160 52" fill="none" xmlns="http://www.w3.org/2000/svg">
<rect width="160" height="52" rx="1" fill="#282828"/>
<path d="M45.8125 31C45.7645 31 45.7405 30.97 45.7405 30.91L45.7765 18.544C45.7765 18.496 45.8005 18.472 45.8485 18.472H49.3045C49.9885 18.472 50.6005 18.64 51.1405 18.976C51.6805 19.3 52.1065 19.732 52.4185 20.272C52.7305 20.812 52.8865 21.4 52.8865 22.036C52.8865 22.552 52.7665 23.032 52.5265 23.476C52.2985 23.92 52.0225 24.28 51.6985 24.556C52.0465 24.904 52.3165 25.306 52.5085 25.762C52.7005 26.218 52.7965 26.698 52.7965 27.202C52.7965 27.898 52.6285 28.534 52.2925 29.11C51.9565 29.686 51.5005 30.148 50.9245 30.496C50.3605 30.832 49.7305 31 49.0345 31H45.8125ZM47.9365 23.44H49.3045C49.7245 23.44 50.0605 23.296 50.3125 23.008C50.5765 22.708 50.7085 22.384 50.7085 22.036C50.7085 21.652 50.5705 21.322 50.2945 21.046C50.0185 20.758 49.6885 20.614 49.3045 20.614H47.9365V23.44ZM47.9185 28.804H49.0345C49.4665 28.804 49.8385 28.648 50.1505 28.336C50.4625 28.012 50.6185 27.634 50.6185 27.202C50.6185 26.77 50.4625 26.398 50.1505 26.086C49.8385 25.774 49.4665 25.618 49.0345 25.618H47.9365L47.9185 28.804ZM54.1801 31C54.1201 31 54.0901 30.97 54.0901 30.91L54.1081 18.544C54.1081 18.496 54.1321 18.472 54.1801 18.472H56.1961C56.2441 18.472 56.2681 18.496 56.2681 18.544L56.2861 30.91C56.2861 30.97 56.2621 31 56.2141 31H54.1801ZM58.1172 31C58.0692 31 58.0452 30.97 58.0452 30.91L58.0632 18.562C58.0632 18.502 58.0932 18.472 58.1532 18.472H60.1512C60.2112 18.472 60.2412 18.502 60.2412 18.562L60.2232 28.786H63.9312C63.9912 28.786 64.0212 28.816 64.0212 28.876V30.91C64.0212 30.97 63.9912 31 63.9312 31H58.1172ZM65.2715 31C65.2235 31 65.1995 30.97 65.1995 30.91L65.2175 18.562C65.2175 18.502 65.2475 18.472 65.3075 18.472H67.3055C67.3655 18.472 67.3955 18.502 67.3955 18.562L67.3775 28.786H71.0855C71.1455 28.786 71.1755 28.816 71.1755 28.876V30.91C71.1755 30.97 71.1455 31 71.0855 31H65.2715ZM72.4258 31C72.3778 31 72.3538 30.97 72.3538 30.91L72.3718 18.544C72.3718 18.496 72.3958 18.472 72.4438 18.472H78.2218C78.2698 18.472 78.2938 18.502 78.2938 18.562V20.578C78.2938 20.626 78.2698 20.65 78.2218 20.65H74.5318V23.458H78.2218C78.2698 23.458 78.2938 23.482 78.2938 23.53L78.3118 25.564C78.3118 25.612 78.2878 25.636 78.2398 25.636H74.5318V28.786H78.2398C78.2878 28.786 78.3118 28.816 78.3118 28.876V30.928C78.3118 30.976 78.2878 31 78.2398 31H72.4258ZM81.7124 31C81.6644 31 81.6404 30.97 81.6404 30.91V20.65H79.3004C79.2404 20.65 79.2104 20.62 79.2104 20.56L79.2284 18.544C79.2284 18.496 79.2524 18.472 79.3004 18.472H86.1404C86.2004 18.472 86.2304 18.496 86.2304 18.544V20.56C86.2304 20.62 86.2064 20.65 86.1584 20.65H83.8004L83.8184 30.91C83.8184 30.97 83.7944 31 83.7464 31H81.7124ZM87.1914 31C87.1434 31 87.1194 30.97 87.1194 30.91L87.1374 18.544C87.1374 18.496 87.1614 18.472 87.2094 18.472H92.9874C93.0354 18.472 93.0594 18.502 93.0594 18.562V20.578C93.0594 20.626 93.0354 20.65 92.9874 20.65H89.2974V23.458H92.9874C93.0354 23.458 93.0594 23.482 93.0594 23.53L93.0774 25.564C93.0774 25.612 93.0534 25.636 93.0054 25.636H89.2974V28.786H93.0054C93.0534 28.786 93.0774 28.816 93.0774 28.876V30.928C93.0774 30.976 93.0534 31 93.0054 31H87.1914ZM94.75 31C94.702 31 94.678 30.97 94.678 30.91L94.714 18.544C94.714 18.496 94.738 18.472 94.786 18.472H98.422C99.07 18.472 99.664 18.634 100.204 18.958C100.756 19.27 101.194 19.696 101.518 20.236C101.842 20.764 102.004 21.364 102.004 22.036C102.004 22.48 101.938 22.882 101.806 23.242C101.674 23.59 101.518 23.89 101.338 24.142C101.158 24.382 100.996 24.562 100.852 24.682C101.5 25.402 101.824 26.248 101.824 27.22L101.842 30.91C101.842 30.97 101.812 31 101.752 31H99.718C99.67 31 99.646 30.982 99.646 30.946V27.22C99.646 26.788 99.49 26.416 99.178 26.104C98.878 25.78 98.506 25.618 98.062 25.618H96.874L96.856 30.91C96.856 30.97 96.832 31 96.784 31H94.75ZM96.874 23.458H98.422C98.794 23.458 99.124 23.32 99.412 23.044C99.7 22.768 99.844 22.432 99.844 22.036C99.844 21.652 99.7 21.322 99.412 21.046C99.136 20.77 98.806 20.632 98.422 20.632H96.874V23.458ZM103.452 31C103.392 31 103.362 30.97 103.362 30.91L103.38 18.544C103.38 18.496 103.404 18.472 103.452 18.472H105.468C105.516 18.472 105.54 18.496 105.54 18.544L105.558 30.91C105.558 30.97 105.534 31 105.486 31H103.452ZM107.213 31C107.165 31 107.141 30.97 107.141 30.91L107.159 18.544C107.159 18.496 107.183 18.472 107.231 18.472H113.009C113.057 18.472 113.081 18.502 113.081 18.562V20.578C113.081 20.626 113.057 20.65 113.009 20.65H109.319V23.458H113.009C113.057 23.458 113.081 23.482 113.081 23.53L113.099 25.564C113.099 25.612 113.075 25.636 113.027 25.636H109.319V28.786H113.027C113.075 28.786 113.099 28.816 113.099 28.876V30.928C113.099 30.976 113.075 31 113.027 31H107.213Z" fill="white"/>
</svg>
