<svg width="249" height="52" viewBox="0 0 249 52" fill="none" xmlns="http://www.w3.org/2000/svg">
<rect width="249" height="52" rx="1" fill="#F29E51"/>
<path d="M54.7434 31C54.6901 31 54.6634 30.9733 54.6634 30.92L54.6794 19.928C54.6794 19.8853 54.7008 19.864 54.7434 19.864H56.5354C56.5781 19.864 56.5994 19.8853 56.5994 19.928L56.6154 30.92C56.6154 30.9733 56.5941 31 56.5514 31H54.7434ZM58.1668 31C58.0815 31 58.0388 30.9627 58.0388 30.888L58.0228 19.992C58.0228 19.9067 58.0655 19.864 58.1508 19.864H59.5908L62.2948 26.168L62.2148 19.992C62.2148 19.9067 62.2628 19.864 62.3588 19.864H63.9428C64.0068 19.864 64.0388 19.9067 64.0388 19.992L64.0548 30.904C64.0548 30.968 64.0281 31 63.9748 31H62.5668L59.7988 25.112L59.9108 30.872C59.9108 30.9573 59.8628 31 59.7668 31H58.1668ZM65.5247 31C65.4714 31 65.4447 30.9733 65.4447 30.92L65.4767 19.928C65.4767 19.8853 65.498 19.864 65.5407 19.864H70.6607C70.714 19.864 70.7407 19.8853 70.7407 19.928V21.736C70.7407 21.7787 70.7194 21.8 70.6767 21.8H67.3967V24.28H70.6767C70.7194 24.28 70.7407 24.3067 70.7407 24.36L70.7567 26.168C70.7567 26.2107 70.73 26.232 70.6767 26.232H67.3967V30.92C67.3967 30.9733 67.37 31 67.3167 31H65.5247ZM74.5609 31.16C73.9849 31.16 73.4569 31.016 72.9769 30.728C72.5076 30.4293 72.1289 30.04 71.8409 29.56C71.5529 29.0693 71.4089 28.5307 71.4089 27.944L71.4249 22.872C71.4249 22.2853 71.5636 21.752 71.8409 21.272C72.1289 20.792 72.5129 20.408 72.9929 20.12C73.4729 19.832 73.9956 19.688 74.5609 19.688C75.1369 19.688 75.6596 19.832 76.1289 20.12C76.5983 20.408 76.9716 20.792 77.2489 21.272C77.5369 21.752 77.6809 22.2853 77.6809 22.872L77.6969 27.944C77.6969 28.5307 77.5529 29.0693 77.2649 29.56C76.9876 30.04 76.6089 30.4293 76.1289 30.728C75.6596 31.016 75.1369 31.16 74.5609 31.16ZM74.5609 29.224C74.8809 29.224 75.1583 29.096 75.3929 28.84C75.6383 28.5733 75.7609 28.2747 75.7609 27.944L75.7449 22.872C75.7449 22.52 75.6329 22.2213 75.4089 21.976C75.1849 21.7307 74.9023 21.608 74.5609 21.608C74.2303 21.608 73.9476 21.7307 73.7129 21.976C73.4783 22.2107 73.3609 22.5093 73.3609 22.872V27.944C73.3609 28.296 73.4783 28.6 73.7129 28.856C73.9476 29.1013 74.2303 29.224 74.5609 29.224ZM78.9774 31C78.9348 31 78.9134 30.9733 78.9134 30.92L78.9454 19.928C78.9454 19.8853 78.9668 19.864 79.0094 19.864H82.2414C82.8174 19.864 83.3454 20.008 83.8254 20.296C84.3161 20.5733 84.7054 20.952 84.9934 21.432C85.2814 21.9013 85.4254 22.4347 85.4254 23.032C85.4254 23.4267 85.3668 23.784 85.2494 24.104C85.1321 24.4133 84.9934 24.68 84.8334 24.904C84.6734 25.1173 84.5294 25.2773 84.4014 25.384C84.9774 26.024 85.2654 26.776 85.2654 27.64L85.2814 30.92C85.2814 30.9733 85.2548 31 85.2014 31H83.3934C83.3508 31 83.3294 30.984 83.3294 30.952V27.64C83.3294 27.256 83.1908 26.9253 82.9134 26.648C82.6468 26.36 82.3161 26.216 81.9214 26.216H80.8654L80.8494 30.92C80.8494 30.9733 80.8281 31 80.7854 31H78.9774ZM80.8654 24.296H82.2414C82.5721 24.296 82.8654 24.1733 83.1214 23.928C83.3774 23.6827 83.5054 23.384 83.5054 23.032C83.5054 22.6907 83.3774 22.3973 83.1214 22.152C82.8761 21.9067 82.5828 21.784 82.2414 21.784H80.8654V24.296ZM86.6962 31C86.6535 31 86.6322 30.9733 86.6322 30.92L86.6642 19.928C86.6642 19.8853 86.6855 19.864 86.7282 19.864H88.6802C88.7229 19.864 88.7602 19.8853 88.7922 19.928L90.2482 22.04L91.7042 19.928C91.7362 19.8853 91.7735 19.864 91.8162 19.864H93.7842C93.8269 19.864 93.8482 19.8853 93.8482 19.928L93.8802 30.92C93.8802 30.9733 93.8589 31 93.8162 31H92.0082C91.9655 31 91.9442 30.9733 91.9442 30.92L91.9282 22.76L90.2482 25.192L88.5842 22.76L88.5682 30.92C88.5682 30.9733 88.5469 31 88.5042 31H86.6962ZM94.6819 30.92L96.6659 19.928C96.6766 19.8853 96.7033 19.864 96.7459 19.864H99.0659C99.1086 19.864 99.1353 19.8853 99.1459 19.928L101.05 30.92C101.061 30.9733 101.039 31 100.986 31H99.2099C99.1673 31 99.1406 30.9733 99.1299 30.92L98.9539 29.752H96.7779L96.6019 30.92C96.5913 30.9733 96.5646 31 96.5219 31H94.7459C94.7033 31 94.6819 30.9733 94.6819 30.92ZM97.0979 28.04H98.6339L97.9779 23.544L97.8819 22.952L97.8179 23.544L97.0979 28.04ZM102.888 31C102.846 31 102.824 30.9733 102.824 30.92V21.8H100.744C100.691 21.8 100.664 21.7733 100.664 21.72L100.68 19.928C100.68 19.8853 100.702 19.864 100.744 19.864H106.824C106.878 19.864 106.904 19.8853 106.904 19.928V21.72C106.904 21.7733 106.883 21.8 106.84 21.8H104.744L104.76 30.92C104.76 30.9733 104.739 31 104.696 31H102.888ZM107.775 31C107.721 31 107.695 30.9733 107.695 30.92L107.711 19.928C107.711 19.8853 107.732 19.864 107.775 19.864H109.567C109.609 19.864 109.631 19.8853 109.631 19.928L109.647 30.92C109.647 30.9733 109.625 31 109.583 31H107.775ZM114.014 31.16C113.438 31.16 112.91 31.016 112.43 30.728C111.961 30.4293 111.582 30.04 111.294 29.56C111.006 29.0693 110.862 28.5307 110.862 27.944L110.878 22.872C110.878 22.2853 111.017 21.752 111.294 21.272C111.582 20.792 111.966 20.408 112.446 20.12C112.926 19.832 113.449 19.688 114.014 19.688C114.59 19.688 115.113 19.832 115.582 20.12C116.051 20.408 116.425 20.792 116.702 21.272C116.99 21.752 117.134 22.2853 117.134 22.872L117.15 27.944C117.15 28.5307 117.006 29.0693 116.718 29.56C116.441 30.04 116.062 30.4293 115.582 30.728C115.113 31.016 114.59 31.16 114.014 31.16ZM114.014 29.224C114.334 29.224 114.611 29.096 114.846 28.84C115.091 28.5733 115.214 28.2747 115.214 27.944L115.198 22.872C115.198 22.52 115.086 22.2213 114.862 21.976C114.638 21.7307 114.355 21.608 114.014 21.608C113.683 21.608 113.401 21.7307 113.166 21.976C112.931 22.2107 112.814 22.5093 112.814 22.872V27.944C112.814 28.296 112.931 28.6 113.166 28.856C113.401 29.1013 113.683 29.224 114.014 29.224ZM118.511 31C118.425 31 118.383 30.9627 118.383 30.888L118.367 19.992C118.367 19.9067 118.409 19.864 118.495 19.864H119.935L122.639 26.168L122.559 19.992C122.559 19.9067 122.607 19.864 122.703 19.864H124.287C124.351 19.864 124.383 19.9067 124.383 19.992L124.399 30.904C124.399 30.968 124.372 31 124.319 31H122.911L120.143 25.112L120.255 30.872C120.255 30.9573 120.207 31 120.111 31H118.511ZM128.508 31.16C127.932 31.16 127.404 31.016 126.924 30.728C126.455 30.4293 126.076 30.04 125.788 29.56C125.511 29.0693 125.372 28.5307 125.372 27.944V27.208C125.372 27.1547 125.399 27.128 125.452 27.128H127.244C127.287 27.128 127.308 27.1547 127.308 27.208V27.944C127.308 28.296 127.426 28.6 127.66 28.856C127.895 29.1013 128.178 29.224 128.508 29.224C128.839 29.224 129.122 29.096 129.356 28.84C129.591 28.584 129.708 28.2853 129.708 27.944C129.708 27.5493 129.452 27.208 128.94 26.92C128.77 26.824 128.503 26.6747 128.14 26.472C127.778 26.2693 127.436 26.0773 127.116 25.896C126.53 25.5547 126.092 25.128 125.804 24.616C125.527 24.0933 125.388 23.5067 125.388 22.856C125.388 22.2587 125.532 21.7253 125.82 21.256C126.108 20.776 126.487 20.3973 126.956 20.12C127.436 19.8427 127.954 19.704 128.508 19.704C129.074 19.704 129.591 19.848 130.06 20.136C130.54 20.4133 130.919 20.792 131.196 21.272C131.484 21.7413 131.628 22.2693 131.628 22.856V24.168C131.628 24.2107 131.607 24.232 131.564 24.232H129.772C129.73 24.232 129.708 24.2107 129.708 24.168L129.692 22.856C129.692 22.4827 129.575 22.1787 129.34 21.944C129.106 21.7093 128.828 21.592 128.508 21.592C128.178 21.592 127.895 21.72 127.66 21.976C127.426 22.2213 127.308 22.5147 127.308 22.856C127.308 23.208 127.383 23.5013 127.532 23.736C127.682 23.9707 127.954 24.1947 128.348 24.408C128.402 24.44 128.503 24.4987 128.652 24.584C128.812 24.6587 128.983 24.7493 129.164 24.856C129.346 24.952 129.506 25.0373 129.644 25.112C129.794 25.1867 129.884 25.2347 129.916 25.256C130.45 25.5547 130.871 25.9227 131.18 26.36C131.49 26.7867 131.644 27.3147 131.644 27.944C131.644 28.552 131.5 29.1013 131.212 29.592C130.935 30.072 130.556 30.456 130.076 30.744C129.607 31.0213 129.084 31.16 128.508 31.16ZM135.212 31C135.159 31 135.132 30.9733 135.132 30.92L135.164 19.928C135.164 19.8853 135.186 19.864 135.228 19.864H138.3C139.282 19.864 140.055 20.1627 140.62 20.76C141.196 21.3573 141.484 22.168 141.484 23.192C141.484 23.9493 141.335 24.6053 141.036 25.16C140.738 25.7147 140.348 26.1413 139.868 26.44C139.388 26.7387 138.866 26.888 138.3 26.888H137.084V30.92C137.084 30.9733 137.058 31 137.004 31H135.212ZM137.084 24.952H138.3C138.642 24.952 138.935 24.792 139.18 24.472C139.436 24.1413 139.564 23.7147 139.564 23.192C139.564 22.776 139.452 22.4347 139.228 22.168C139.004 21.9013 138.695 21.768 138.3 21.768L137.084 21.784V24.952ZM142.634 31C142.591 31 142.57 30.9733 142.57 30.92L142.602 19.928C142.602 19.8853 142.623 19.864 142.666 19.864H145.898C146.474 19.864 147.002 20.008 147.482 20.296C147.972 20.5733 148.362 20.952 148.65 21.432C148.938 21.9013 149.082 22.4347 149.082 23.032C149.082 23.4267 149.023 23.784 148.906 24.104C148.788 24.4133 148.65 24.68 148.49 24.904C148.33 25.1173 148.186 25.2773 148.058 25.384C148.634 26.024 148.922 26.776 148.922 27.64L148.938 30.92C148.938 30.9733 148.911 31 148.858 31H147.05C147.007 31 146.986 30.984 146.986 30.952V27.64C146.986 27.256 146.847 26.9253 146.57 26.648C146.303 26.36 145.972 26.216 145.578 26.216H144.522L144.506 30.92C144.506 30.9733 144.484 31 144.442 31H142.634ZM144.522 24.296H145.898C146.228 24.296 146.522 24.1733 146.778 23.928C147.034 23.6827 147.162 23.384 147.162 23.032C147.162 22.6907 147.034 22.3973 146.778 22.152C146.532 21.9067 146.239 21.784 145.898 21.784H144.522V24.296ZM149.744 30.92L151.728 19.928C151.739 19.8853 151.766 19.864 151.808 19.864H154.128C154.171 19.864 154.198 19.8853 154.208 19.928L156.112 30.92C156.123 30.9733 156.102 31 156.048 31H154.272C154.23 31 154.203 30.9733 154.192 30.92L154.016 29.752H151.84L151.664 30.92C151.654 30.9733 151.627 31 151.584 31H149.808C149.766 31 149.744 30.9733 149.744 30.92ZM152.16 28.04H153.696L153.04 23.544L152.944 22.952L152.88 23.544L152.16 28.04ZM157.951 31C157.908 31 157.887 30.9733 157.887 30.92V21.8H155.807C155.754 21.8 155.727 21.7733 155.727 21.72L155.743 19.928C155.743 19.8853 155.764 19.864 155.807 19.864H161.887C161.94 19.864 161.967 19.8853 161.967 19.928V21.72C161.967 21.7733 161.946 21.8 161.903 21.8H159.807L159.823 30.92C159.823 30.9733 159.802 31 159.759 31H157.951ZM162.837 31C162.784 31 162.757 30.9733 162.757 30.92L162.773 19.928C162.773 19.8853 162.795 19.864 162.837 19.864H164.629C164.672 19.864 164.693 19.8853 164.693 19.928L164.709 30.92C164.709 30.9733 164.688 31 164.645 31H162.837ZM171.381 32.024L170.277 30.904C169.893 31.0747 169.493 31.16 169.077 31.16C168.511 31.16 167.989 31.016 167.509 30.728C167.029 30.44 166.645 30.0507 166.357 29.56C166.069 29.0693 165.925 28.5307 165.925 27.944L165.941 22.872C165.941 22.3067 166.079 21.784 166.357 21.304C166.634 20.8133 167.007 20.424 167.477 20.136C167.957 19.8373 168.49 19.688 169.077 19.688C169.642 19.688 170.159 19.832 170.629 20.12C171.109 20.3973 171.487 20.776 171.765 21.256C172.053 21.736 172.197 22.2747 172.197 22.872L172.213 27.944C172.213 28.2533 172.17 28.552 172.085 28.84C171.999 29.128 171.887 29.3947 171.749 29.64L172.741 30.648C172.783 30.6907 172.789 30.728 172.757 30.76L171.493 32.024C171.45 32.056 171.413 32.056 171.381 32.024ZM169.077 29.224C169.439 29.224 169.727 29.0907 169.941 28.824C170.165 28.5467 170.277 28.2533 170.277 27.944L170.261 22.872C170.261 22.5307 170.149 22.2373 169.925 21.992C169.701 21.736 169.418 21.608 169.077 21.608C168.714 21.608 168.421 21.736 168.197 21.992C167.983 22.248 167.877 22.5413 167.877 22.872V27.944C167.877 28.328 167.999 28.6373 168.245 28.872C168.501 29.1067 168.778 29.224 169.077 29.224ZM176.607 31.16C176.042 31.16 175.519 31.016 175.039 30.728C174.559 30.4293 174.175 30.0347 173.887 29.544C173.61 29.0533 173.471 28.5147 173.471 27.928L173.503 19.928C173.503 19.8853 173.525 19.864 173.567 19.864H175.359C175.402 19.864 175.423 19.8853 175.423 19.928V27.928C175.423 28.2907 175.535 28.6 175.759 28.856C175.994 29.1013 176.277 29.224 176.607 29.224C176.949 29.224 177.231 29.1013 177.455 28.856C177.69 28.6 177.807 28.2907 177.807 27.928V19.928C177.807 19.8853 177.829 19.864 177.871 19.864H179.663C179.706 19.864 179.727 19.8853 179.727 19.928L179.759 27.928C179.759 28.5253 179.615 29.0693 179.327 29.56C179.05 30.0507 178.671 30.44 178.191 30.728C177.722 31.016 177.194 31.16 176.607 31.16ZM181.087 31C181.044 31 181.023 30.9733 181.023 30.92L181.039 19.928C181.039 19.8853 181.06 19.864 181.103 19.864H186.239C186.281 19.864 186.303 19.8907 186.303 19.944V21.736C186.303 21.7787 186.281 21.8 186.239 21.8H182.959V24.296H186.239C186.281 24.296 186.303 24.3173 186.303 24.36L186.319 26.168C186.319 26.2107 186.297 26.232 186.255 26.232H182.959V29.032H186.255C186.297 29.032 186.319 29.0587 186.319 29.112V30.936C186.319 30.9787 186.297 31 186.255 31H181.087ZM190.368 31.16C189.792 31.16 189.264 31.016 188.784 30.728C188.314 30.4293 187.936 30.04 187.648 29.56C187.37 29.0693 187.232 28.5307 187.232 27.944V27.208C187.232 27.1547 187.258 27.128 187.312 27.128H189.104C189.146 27.128 189.168 27.1547 189.168 27.208V27.944C189.168 28.296 189.285 28.6 189.52 28.856C189.754 29.1013 190.037 29.224 190.368 29.224C190.698 29.224 190.981 29.096 191.216 28.84C191.45 28.584 191.568 28.2853 191.568 27.944C191.568 27.5493 191.312 27.208 190.8 26.92C190.629 26.824 190.362 26.6747 190 26.472C189.637 26.2693 189.296 26.0773 188.976 25.896C188.389 25.5547 187.952 25.128 187.664 24.616C187.386 24.0933 187.248 23.5067 187.248 22.856C187.248 22.2587 187.392 21.7253 187.68 21.256C187.968 20.776 188.346 20.3973 188.816 20.12C189.296 19.8427 189.813 19.704 190.368 19.704C190.933 19.704 191.45 19.848 191.92 20.136C192.4 20.4133 192.778 20.792 193.056 21.272C193.344 21.7413 193.488 22.2693 193.488 22.856V24.168C193.488 24.2107 193.466 24.232 193.424 24.232H191.632C191.589 24.232 191.568 24.2107 191.568 24.168L191.552 22.856C191.552 22.4827 191.434 22.1787 191.2 21.944C190.965 21.7093 190.688 21.592 190.368 21.592C190.037 21.592 189.754 21.72 189.52 21.976C189.285 22.2213 189.168 22.5147 189.168 22.856C189.168 23.208 189.242 23.5013 189.392 23.736C189.541 23.9707 189.813 24.1947 190.208 24.408C190.261 24.44 190.362 24.4987 190.512 24.584C190.672 24.6587 190.842 24.7493 191.024 24.856C191.205 24.952 191.365 25.0373 191.504 25.112C191.653 25.1867 191.744 25.2347 191.776 25.256C192.309 25.5547 192.73 25.9227 193.04 26.36C193.349 26.7867 193.504 27.3147 193.504 27.944C193.504 28.552 193.36 29.1013 193.072 29.592C192.794 30.072 192.416 30.456 191.936 30.744C191.466 31.0213 190.944 31.16 190.368 31.16Z" fill="black"/>
</svg>
