<svg width="259" height="158" viewBox="0 0 259 158" fill="none" xmlns="http://www.w3.org/2000/svg">
<ellipse cx="2.51068" cy="155.033" rx="2.30882" ry="2.30357" transform="rotate(-90.0767 2.51068 155.033)" fill="#D9D9D9"/>
<ellipse cx="2.48801" cy="138.102" rx="2.30882" ry="2.30357" transform="rotate(-90.0767 2.48801 138.102)" fill="#D9D9D9"/>
<ellipse cx="2.46534" cy="121.171" rx="2.30882" ry="2.30357" transform="rotate(-90.0767 2.46534 121.171)" fill="#D9D9D9"/>
<ellipse cx="2.44267" cy="104.239" rx="2.30882" ry="2.30357" transform="rotate(-90.0767 2.44267 104.239)" fill="#D9D9D9"/>
<ellipse cx="2.42" cy="87.3079" rx="2.30882" ry="2.30357" transform="rotate(-90.0767 2.42 87.3079)" fill="#D9D9D9"/>
<ellipse cx="2.39733" cy="70.3766" rx="2.30882" ry="2.30357" transform="rotate(-90.0767 2.39733 70.3766)" fill="#D9D9D9"/>
<ellipse cx="2.37466" cy="53.4452" rx="2.30882" ry="2.30357" transform="rotate(-90.0767 2.37466 53.4452)" fill="#D9D9D9"/>
<ellipse cx="2.35199" cy="36.5139" rx="2.30882" ry="2.30357" transform="rotate(-90.0767 2.35199 36.5139)" fill="#D9D9D9"/>
<ellipse cx="2.32933" cy="19.5825" rx="2.30882" ry="2.30357" transform="rotate(-90.0767 2.32933 19.5825)" fill="#D9D9D9"/>
<ellipse cx="2.30666" cy="2.65115" rx="2.30882" ry="2.30357" transform="rotate(-90.0767 2.30666 2.65115)" fill="#D9D9D9"/>
<ellipse cx="19.4035" cy="155.011" rx="2.30882" ry="2.30357" transform="rotate(-90.0767 19.4035 155.011)" fill="#D9D9D9"/>
<ellipse cx="19.3808" cy="138.079" rx="2.30882" ry="2.30357" transform="rotate(-90.0767 19.3808 138.079)" fill="#D9D9D9"/>
<ellipse cx="19.3582" cy="121.148" rx="2.30882" ry="2.30357" transform="rotate(-90.0767 19.3582 121.148)" fill="#D9D9D9"/>
<ellipse cx="19.3355" cy="104.217" rx="2.30882" ry="2.30357" transform="rotate(-90.0767 19.3355 104.217)" fill="#D9D9D9"/>
<ellipse cx="19.3128" cy="87.2853" rx="2.30882" ry="2.30357" transform="rotate(-90.0767 19.3128 87.2853)" fill="#D9D9D9"/>
<ellipse cx="19.2902" cy="70.354" rx="2.30882" ry="2.30357" transform="rotate(-90.0767 19.2902 70.354)" fill="#D9D9D9"/>
<ellipse cx="19.2675" cy="53.4226" rx="2.30882" ry="2.30357" transform="rotate(-90.0767 19.2675 53.4226)" fill="#D9D9D9"/>
<ellipse cx="19.2448" cy="36.4913" rx="2.30882" ry="2.30357" transform="rotate(-90.0767 19.2448 36.4913)" fill="#D9D9D9"/>
<ellipse cx="19.2222" cy="19.5599" rx="2.30882" ry="2.30357" transform="rotate(-90.0767 19.2222 19.5599)" fill="#D9D9D9"/>
<ellipse cx="19.1995" cy="2.62854" rx="2.30882" ry="2.30357" transform="rotate(-90.0767 19.1995 2.62854)" fill="#D9D9D9"/>
<ellipse cx="36.2964" cy="154.988" rx="2.30882" ry="2.30357" transform="rotate(-90.0767 36.2964 154.988)" fill="#D9D9D9"/>
<ellipse cx="36.2737" cy="138.057" rx="2.30882" ry="2.30357" transform="rotate(-90.0767 36.2737 138.057)" fill="#D9D9D9"/>
<ellipse cx="36.251" cy="121.125" rx="2.30882" ry="2.30357" transform="rotate(-90.0767 36.251 121.125)" fill="#D9D9D9"/>
<ellipse cx="36.2284" cy="104.194" rx="2.30882" ry="2.30357" transform="rotate(-90.0767 36.2284 104.194)" fill="#D9D9D9"/>
<ellipse cx="36.2057" cy="87.2627" rx="2.30882" ry="2.30357" transform="rotate(-90.0767 36.2057 87.2627)" fill="#D9D9D9"/>
<ellipse cx="36.183" cy="70.3314" rx="2.30882" ry="2.30357" transform="rotate(-90.0767 36.183 70.3314)" fill="#D9D9D9"/>
<ellipse cx="36.1603" cy="53.4" rx="2.30882" ry="2.30357" transform="rotate(-90.0767 36.1603 53.4)" fill="#D9D9D9"/>
<ellipse cx="36.1377" cy="36.4686" rx="2.30882" ry="2.30357" transform="rotate(-90.0767 36.1377 36.4686)" fill="#D9D9D9"/>
<ellipse cx="36.115" cy="19.5373" rx="2.30882" ry="2.30357" transform="rotate(-90.0767 36.115 19.5373)" fill="#D9D9D9"/>
<ellipse cx="36.0923" cy="2.60593" rx="2.30882" ry="2.30357" transform="rotate(-90.0767 36.0923 2.60593)" fill="#D9D9D9"/>
<ellipse cx="53.1892" cy="154.966" rx="2.30882" ry="2.30357" transform="rotate(-90.0767 53.1892 154.966)" fill="#D9D9D9"/>
<ellipse cx="53.1665" cy="138.034" rx="2.30882" ry="2.30357" transform="rotate(-90.0767 53.1665 138.034)" fill="#D9D9D9"/>
<ellipse cx="53.1439" cy="121.103" rx="2.30882" ry="2.30357" transform="rotate(-90.0767 53.1439 121.103)" fill="#D9D9D9"/>
<ellipse cx="53.1212" cy="104.171" rx="2.30882" ry="2.30357" transform="rotate(-90.0767 53.1212 104.171)" fill="#D9D9D9"/>
<ellipse cx="53.0985" cy="87.2401" rx="2.30882" ry="2.30357" transform="rotate(-90.0767 53.0985 87.2401)" fill="#D9D9D9"/>
<ellipse cx="53.0759" cy="70.3087" rx="2.30882" ry="2.30357" transform="rotate(-90.0767 53.0759 70.3087)" fill="#D9D9D9"/>
<ellipse cx="53.0532" cy="53.3774" rx="2.30882" ry="2.30357" transform="rotate(-90.0767 53.0532 53.3774)" fill="#D9D9D9"/>
<ellipse cx="53.0305" cy="36.446" rx="2.30882" ry="2.30357" transform="rotate(-90.0767 53.0305 36.446)" fill="#D9D9D9"/>
<ellipse cx="53.0079" cy="19.5147" rx="2.30882" ry="2.30357" transform="rotate(-90.0767 53.0079 19.5147)" fill="#D9D9D9"/>
<ellipse cx="52.9852" cy="2.58331" rx="2.30882" ry="2.30357" transform="rotate(-90.0767 52.9852 2.58331)" fill="#D9D9D9"/>
<ellipse cx="70.082" cy="154.943" rx="2.30882" ry="2.30357" transform="rotate(-90.0767 70.082 154.943)" fill="#D9D9D9"/>
<ellipse cx="70.0594" cy="138.012" rx="2.30882" ry="2.30357" transform="rotate(-90.0767 70.0594 138.012)" fill="#D9D9D9"/>
<ellipse cx="70.0367" cy="121.08" rx="2.30882" ry="2.30357" transform="rotate(-90.0767 70.0367 121.08)" fill="#D9D9D9"/>
<ellipse cx="70.014" cy="104.149" rx="2.30882" ry="2.30357" transform="rotate(-90.0767 70.014 104.149)" fill="#D9D9D9"/>
<ellipse cx="69.9914" cy="87.2175" rx="2.30882" ry="2.30357" transform="rotate(-90.0767 69.9914 87.2175)" fill="#D9D9D9"/>
<ellipse cx="69.9687" cy="70.2861" rx="2.30882" ry="2.30357" transform="rotate(-90.0767 69.9687 70.2861)" fill="#D9D9D9"/>
<ellipse cx="69.946" cy="53.3548" rx="2.30882" ry="2.30357" transform="rotate(-90.0767 69.946 53.3548)" fill="#D9D9D9"/>
<ellipse cx="69.9234" cy="36.4234" rx="2.30882" ry="2.30357" transform="rotate(-90.0767 69.9234 36.4234)" fill="#D9D9D9"/>
<ellipse cx="69.9007" cy="19.4921" rx="2.30882" ry="2.30357" transform="rotate(-90.0767 69.9007 19.4921)" fill="#D9D9D9"/>
<ellipse cx="69.878" cy="2.5607" rx="2.30882" ry="2.30357" transform="rotate(-90.0767 69.878 2.5607)" fill="#D9D9D9"/>
<ellipse cx="86.9749" cy="154.92" rx="2.30882" ry="2.30357" transform="rotate(-90.0767 86.9749 154.92)" fill="#D9D9D9"/>
<ellipse cx="86.9522" cy="137.989" rx="2.30882" ry="2.30357" transform="rotate(-90.0767 86.9522 137.989)" fill="#D9D9D9"/>
<ellipse cx="86.9295" cy="121.058" rx="2.30882" ry="2.30357" transform="rotate(-90.0767 86.9295 121.058)" fill="#D9D9D9"/>
<ellipse cx="86.9069" cy="104.126" rx="2.30882" ry="2.30357" transform="rotate(-90.0767 86.9069 104.126)" fill="#D9D9D9"/>
<ellipse cx="86.8842" cy="87.1948" rx="2.30882" ry="2.30357" transform="rotate(-90.0767 86.8842 87.1948)" fill="#D9D9D9"/>
<ellipse cx="86.8615" cy="70.2635" rx="2.30882" ry="2.30357" transform="rotate(-90.0767 86.8615 70.2635)" fill="#D9D9D9"/>
<ellipse cx="86.8389" cy="53.3321" rx="2.30882" ry="2.30357" transform="rotate(-90.0767 86.8389 53.3321)" fill="#D9D9D9"/>
<ellipse cx="86.8162" cy="36.4008" rx="2.30882" ry="2.30357" transform="rotate(-90.0767 86.8162 36.4008)" fill="#D9D9D9"/>
<ellipse cx="86.7935" cy="19.4694" rx="2.30882" ry="2.30357" transform="rotate(-90.0767 86.7935 19.4694)" fill="#D9D9D9"/>
<ellipse cx="86.7709" cy="2.53805" rx="2.30882" ry="2.30357" transform="rotate(-90.0767 86.7709 2.53805)" fill="#D9D9D9"/>
<ellipse cx="103.868" cy="154.898" rx="2.30882" ry="2.30357" transform="rotate(-90.0767 103.868 154.898)" fill="#D9D9D9"/>
<ellipse cx="103.845" cy="137.966" rx="2.30882" ry="2.30357" transform="rotate(-90.0767 103.845 137.966)" fill="#D9D9D9"/>
<ellipse cx="103.822" cy="121.035" rx="2.30882" ry="2.30357" transform="rotate(-90.0767 103.822 121.035)" fill="#D9D9D9"/>
<ellipse cx="103.8" cy="104.104" rx="2.30882" ry="2.30357" transform="rotate(-90.0767 103.8 104.104)" fill="#D9D9D9"/>
<ellipse cx="103.777" cy="87.1722" rx="2.30882" ry="2.30357" transform="rotate(-90.0767 103.777 87.1722)" fill="#D9D9D9"/>
<ellipse cx="103.754" cy="70.2409" rx="2.30882" ry="2.30357" transform="rotate(-90.0767 103.754 70.2409)" fill="#D9D9D9"/>
<ellipse cx="103.732" cy="53.3095" rx="2.30882" ry="2.30357" transform="rotate(-90.0767 103.732 53.3095)" fill="#D9D9D9"/>
<ellipse cx="103.709" cy="36.3782" rx="2.30882" ry="2.30357" transform="rotate(-90.0767 103.709 36.3782)" fill="#D9D9D9"/>
<ellipse cx="103.686" cy="19.4468" rx="2.30882" ry="2.30357" transform="rotate(-90.0767 103.686 19.4468)" fill="#D9D9D9"/>
<ellipse cx="103.664" cy="2.51544" rx="2.30882" ry="2.30357" transform="rotate(-90.0767 103.664 2.51544)" fill="#D9D9D9"/>
<ellipse cx="120.761" cy="154.875" rx="2.30882" ry="2.30357" transform="rotate(-90.0767 120.761 154.875)" fill="#D9D9D9"/>
<ellipse cx="120.738" cy="137.944" rx="2.30882" ry="2.30357" transform="rotate(-90.0767 120.738 137.944)" fill="#D9D9D9"/>
<ellipse cx="120.715" cy="121.012" rx="2.30882" ry="2.30357" transform="rotate(-90.0767 120.715 121.012)" fill="#D9D9D9"/>
<ellipse cx="120.693" cy="104.081" rx="2.30882" ry="2.30357" transform="rotate(-90.0767 120.693 104.081)" fill="#D9D9D9"/>
<ellipse cx="120.67" cy="87.1496" rx="2.30882" ry="2.30357" transform="rotate(-90.0767 120.67 87.1496)" fill="#D9D9D9"/>
<ellipse cx="120.647" cy="70.2183" rx="2.30882" ry="2.30357" transform="rotate(-90.0767 120.647 70.2183)" fill="#D9D9D9"/>
<ellipse cx="120.625" cy="53.2869" rx="2.30882" ry="2.30357" transform="rotate(-90.0767 120.625 53.2869)" fill="#D9D9D9"/>
<ellipse cx="120.602" cy="36.3555" rx="2.30882" ry="2.30357" transform="rotate(-90.0767 120.602 36.3555)" fill="#D9D9D9"/>
<ellipse cx="120.579" cy="19.4242" rx="2.30882" ry="2.30357" transform="rotate(-90.0767 120.579 19.4242)" fill="#D9D9D9"/>
<ellipse cx="120.557" cy="2.49283" rx="2.30882" ry="2.30357" transform="rotate(-90.0767 120.557 2.49283)" fill="#D9D9D9"/>
<ellipse cx="137.653" cy="154.852" rx="2.30882" ry="2.30357" transform="rotate(-90.0767 137.653 154.852)" fill="#D9D9D9"/>
<ellipse cx="137.631" cy="137.921" rx="2.30882" ry="2.30357" transform="rotate(-90.0767 137.631 137.921)" fill="#D9D9D9"/>
<ellipse cx="137.608" cy="120.99" rx="2.30882" ry="2.30357" transform="rotate(-90.0767 137.608 120.99)" fill="#D9D9D9"/>
<ellipse cx="137.585" cy="104.058" rx="2.30882" ry="2.30357" transform="rotate(-90.0767 137.585 104.058)" fill="#D9D9D9"/>
<ellipse cx="137.563" cy="87.127" rx="2.30882" ry="2.30357" transform="rotate(-90.0767 137.563 87.127)" fill="#D9D9D9"/>
<ellipse cx="137.54" cy="70.1956" rx="2.30882" ry="2.30357" transform="rotate(-90.0767 137.54 70.1956)" fill="#D9D9D9"/>
<ellipse cx="137.517" cy="53.2643" rx="2.30882" ry="2.30357" transform="rotate(-90.0767 137.517 53.2643)" fill="#D9D9D9"/>
<ellipse cx="137.495" cy="36.3329" rx="2.30882" ry="2.30357" transform="rotate(-90.0767 137.495 36.3329)" fill="#D9D9D9"/>
<ellipse cx="137.472" cy="19.4016" rx="2.30882" ry="2.30357" transform="rotate(-90.0767 137.472 19.4016)" fill="#D9D9D9"/>
<ellipse cx="137.449" cy="2.47021" rx="2.30882" ry="2.30357" transform="rotate(-90.0767 137.449 2.47021)" fill="#D9D9D9"/>
<ellipse cx="154.546" cy="154.83" rx="2.30882" ry="2.30357" transform="rotate(-90.0767 154.546 154.83)" fill="#D9D9D9"/>
<ellipse cx="154.524" cy="137.898" rx="2.30882" ry="2.30357" transform="rotate(-90.0767 154.524 137.898)" fill="#D9D9D9"/>
<ellipse cx="154.501" cy="120.967" rx="2.30882" ry="2.30357" transform="rotate(-90.0767 154.501 120.967)" fill="#D9D9D9"/>
<ellipse cx="154.478" cy="104.036" rx="2.30882" ry="2.30357" transform="rotate(-90.0767 154.478 104.036)" fill="#D9D9D9"/>
<ellipse cx="154.456" cy="87.1044" rx="2.30882" ry="2.30357" transform="rotate(-90.0767 154.456 87.1044)" fill="#D9D9D9"/>
<ellipse cx="154.433" cy="70.173" rx="2.30882" ry="2.30357" transform="rotate(-90.0767 154.433 70.173)" fill="#D9D9D9"/>
<ellipse cx="154.41" cy="53.2417" rx="2.30882" ry="2.30357" transform="rotate(-90.0767 154.41 53.2417)" fill="#D9D9D9"/>
<ellipse cx="154.388" cy="36.3103" rx="2.30882" ry="2.30357" transform="rotate(-90.0767 154.388 36.3103)" fill="#D9D9D9"/>
<ellipse cx="154.365" cy="19.379" rx="2.30882" ry="2.30357" transform="rotate(-90.0767 154.365 19.379)" fill="#D9D9D9"/>
<ellipse cx="154.342" cy="2.4476" rx="2.30882" ry="2.30357" transform="rotate(-90.0767 154.342 2.4476)" fill="#D9D9D9"/>
<ellipse cx="171.439" cy="154.807" rx="2.30882" ry="2.30357" transform="rotate(-90.0767 171.439 154.807)" fill="#D9D9D9"/>
<ellipse cx="171.416" cy="137.876" rx="2.30882" ry="2.30357" transform="rotate(-90.0767 171.416 137.876)" fill="#D9D9D9"/>
<ellipse cx="171.394" cy="120.945" rx="2.30882" ry="2.30357" transform="rotate(-90.0767 171.394 120.945)" fill="#D9D9D9"/>
<ellipse cx="171.371" cy="104.013" rx="2.30882" ry="2.30357" transform="rotate(-90.0767 171.371 104.013)" fill="#D9D9D9"/>
<ellipse cx="171.348" cy="87.0818" rx="2.30882" ry="2.30357" transform="rotate(-90.0767 171.348 87.0818)" fill="#D9D9D9"/>
<ellipse cx="171.326" cy="70.1504" rx="2.30882" ry="2.30357" transform="rotate(-90.0767 171.326 70.1504)" fill="#D9D9D9"/>
<ellipse cx="171.303" cy="53.2191" rx="2.30882" ry="2.30357" transform="rotate(-90.0767 171.303 53.2191)" fill="#D9D9D9"/>
<ellipse cx="171.28" cy="36.2877" rx="2.30882" ry="2.30357" transform="rotate(-90.0767 171.28 36.2877)" fill="#D9D9D9"/>
<ellipse cx="171.258" cy="19.3564" rx="2.30882" ry="2.30357" transform="rotate(-90.0767 171.258 19.3564)" fill="#D9D9D9"/>
<ellipse cx="171.235" cy="2.42499" rx="2.30882" ry="2.30357" transform="rotate(-90.0767 171.235 2.42499)" fill="#D9D9D9"/>
<ellipse cx="188.332" cy="154.785" rx="2.30882" ry="2.30357" transform="rotate(-90.0767 188.332 154.785)" fill="#D9D9D9"/>
<ellipse cx="188.309" cy="137.853" rx="2.30882" ry="2.30357" transform="rotate(-90.0767 188.309 137.853)" fill="#D9D9D9"/>
<ellipse cx="188.287" cy="120.922" rx="2.30882" ry="2.30357" transform="rotate(-90.0767 188.287 120.922)" fill="#D9D9D9"/>
<ellipse cx="188.264" cy="103.991" rx="2.30882" ry="2.30357" transform="rotate(-90.0767 188.264 103.991)" fill="#D9D9D9"/>
<ellipse cx="188.241" cy="87.0592" rx="2.30882" ry="2.30357" transform="rotate(-90.0767 188.241 87.0592)" fill="#D9D9D9"/>
<ellipse cx="188.219" cy="70.1278" rx="2.30882" ry="2.30357" transform="rotate(-90.0767 188.219 70.1278)" fill="#D9D9D9"/>
<ellipse cx="188.196" cy="53.1964" rx="2.30882" ry="2.30357" transform="rotate(-90.0767 188.196 53.1964)" fill="#D9D9D9"/>
<ellipse cx="188.173" cy="36.2651" rx="2.30882" ry="2.30357" transform="rotate(-90.0767 188.173 36.2651)" fill="#D9D9D9"/>
<ellipse cx="188.151" cy="19.3337" rx="2.30882" ry="2.30357" transform="rotate(-90.0767 188.151 19.3337)" fill="#D9D9D9"/>
<ellipse cx="188.128" cy="2.40237" rx="2.30882" ry="2.30357" transform="rotate(-90.0767 188.128 2.40237)" fill="#D9D9D9"/>
<ellipse cx="205.225" cy="154.762" rx="2.30882" ry="2.30357" transform="rotate(-90.0767 205.225 154.762)" fill="#D9D9D9"/>
<ellipse cx="205.202" cy="137.831" rx="2.30882" ry="2.30357" transform="rotate(-90.0767 205.202 137.831)" fill="#D9D9D9"/>
<ellipse cx="205.179" cy="120.899" rx="2.30882" ry="2.30357" transform="rotate(-90.0767 205.179 120.899)" fill="#D9D9D9"/>
<ellipse cx="205.157" cy="103.968" rx="2.30882" ry="2.30357" transform="rotate(-90.0767 205.157 103.968)" fill="#D9D9D9"/>
<ellipse cx="205.134" cy="87.0365" rx="2.30882" ry="2.30357" transform="rotate(-90.0767 205.134 87.0365)" fill="#D9D9D9"/>
<ellipse cx="205.111" cy="70.1052" rx="2.30882" ry="2.30357" transform="rotate(-90.0767 205.111 70.1052)" fill="#D9D9D9"/>
<ellipse cx="205.089" cy="53.1738" rx="2.30882" ry="2.30357" transform="rotate(-90.0767 205.089 53.1738)" fill="#D9D9D9"/>
<ellipse cx="205.066" cy="36.2425" rx="2.30882" ry="2.30357" transform="rotate(-90.0767 205.066 36.2425)" fill="#D9D9D9"/>
<ellipse cx="205.043" cy="19.3111" rx="2.30882" ry="2.30357" transform="rotate(-90.0767 205.043 19.3111)" fill="#D9D9D9"/>
<ellipse cx="205.021" cy="2.37976" rx="2.30882" ry="2.30357" transform="rotate(-90.0767 205.021 2.37976)" fill="#D9D9D9"/>
<ellipse cx="222.118" cy="154.739" rx="2.30882" ry="2.30357" transform="rotate(-90.0767 222.118 154.739)" fill="#D9D9D9"/>
<ellipse cx="222.095" cy="137.808" rx="2.30882" ry="2.30357" transform="rotate(-90.0767 222.095 137.808)" fill="#D9D9D9"/>
<ellipse cx="222.072" cy="120.877" rx="2.30882" ry="2.30357" transform="rotate(-90.0767 222.072 120.877)" fill="#D9D9D9"/>
<ellipse cx="222.05" cy="103.945" rx="2.30882" ry="2.30357" transform="rotate(-90.0767 222.05 103.945)" fill="#D9D9D9"/>
<ellipse cx="222.027" cy="87.0139" rx="2.30882" ry="2.30357" transform="rotate(-90.0767 222.027 87.0139)" fill="#D9D9D9"/>
<ellipse cx="222.004" cy="70.0826" rx="2.30882" ry="2.30357" transform="rotate(-90.0767 222.004 70.0826)" fill="#D9D9D9"/>
<ellipse cx="221.982" cy="53.1512" rx="2.30882" ry="2.30357" transform="rotate(-90.0767 221.982 53.1512)" fill="#D9D9D9"/>
<ellipse cx="221.959" cy="36.2198" rx="2.30882" ry="2.30357" transform="rotate(-90.0767 221.959 36.2198)" fill="#D9D9D9"/>
<ellipse cx="221.936" cy="19.2885" rx="2.30882" ry="2.30357" transform="rotate(-90.0767 221.936 19.2885)" fill="#D9D9D9"/>
<ellipse cx="221.914" cy="2.35712" rx="2.30882" ry="2.30357" transform="rotate(-90.0767 221.914 2.35712)" fill="#D9D9D9"/>
<ellipse cx="239.01" cy="154.717" rx="2.30882" ry="2.30357" transform="rotate(-90.0767 239.01 154.717)" fill="#D9D9D9"/>
<ellipse cx="238.988" cy="137.785" rx="2.30882" ry="2.30357" transform="rotate(-90.0767 238.988 137.785)" fill="#D9D9D9"/>
<ellipse cx="238.965" cy="120.854" rx="2.30882" ry="2.30357" transform="rotate(-90.0767 238.965 120.854)" fill="#D9D9D9"/>
<ellipse cx="238.942" cy="103.923" rx="2.30882" ry="2.30357" transform="rotate(-90.0767 238.942 103.923)" fill="#D9D9D9"/>
<ellipse cx="238.92" cy="86.9913" rx="2.30882" ry="2.30357" transform="rotate(-90.0767 238.92 86.9913)" fill="#D9D9D9"/>
<ellipse cx="238.897" cy="70.0599" rx="2.30882" ry="2.30357" transform="rotate(-90.0767 238.897 70.0599)" fill="#D9D9D9"/>
<ellipse cx="238.874" cy="53.1286" rx="2.30882" ry="2.30357" transform="rotate(-90.0767 238.874 53.1286)" fill="#D9D9D9"/>
<ellipse cx="238.852" cy="36.1972" rx="2.30882" ry="2.30357" transform="rotate(-90.0767 238.852 36.1972)" fill="#D9D9D9"/>
<ellipse cx="238.829" cy="19.2659" rx="2.30882" ry="2.30357" transform="rotate(-90.0767 238.829 19.2659)" fill="#D9D9D9"/>
<ellipse cx="238.806" cy="2.3345" rx="2.30882" ry="2.30357" transform="rotate(-90.0767 238.806 2.3345)" fill="#D9D9D9"/>
<ellipse cx="255.903" cy="154.694" rx="2.30882" ry="2.30357" transform="rotate(-90.0767 255.903 154.694)" fill="#D9D9D9"/>
<ellipse cx="255.881" cy="137.763" rx="2.30882" ry="2.30357" transform="rotate(-90.0767 255.881 137.763)" fill="#D9D9D9"/>
<ellipse cx="255.858" cy="120.831" rx="2.30882" ry="2.30357" transform="rotate(-90.0767 255.858 120.831)" fill="#D9D9D9"/>
<ellipse cx="255.835" cy="103.9" rx="2.30882" ry="2.30357" transform="rotate(-90.0767 255.835 103.9)" fill="#D9D9D9"/>
<ellipse cx="255.813" cy="86.9687" rx="2.30882" ry="2.30357" transform="rotate(-90.0767 255.813 86.9687)" fill="#D9D9D9"/>
<ellipse cx="255.79" cy="70.0373" rx="2.30882" ry="2.30357" transform="rotate(-90.0767 255.79 70.0373)" fill="#D9D9D9"/>
<ellipse cx="255.767" cy="53.106" rx="2.30882" ry="2.30357" transform="rotate(-90.0767 255.767 53.106)" fill="#D9D9D9"/>
<ellipse cx="255.745" cy="36.1746" rx="2.30882" ry="2.30357" transform="rotate(-90.0767 255.745 36.1746)" fill="#D9D9D9"/>
<ellipse cx="255.722" cy="19.2433" rx="2.30882" ry="2.30357" transform="rotate(-90.0767 255.722 19.2433)" fill="#D9D9D9"/>
<ellipse cx="255.699" cy="2.31189" rx="2.30882" ry="2.30357" transform="rotate(-90.0767 255.699 2.31189)" fill="#D9D9D9"/>
</svg>
