<svg width="331" height="27" viewBox="0 0 331 27" fill="none" xmlns="http://www.w3.org/2000/svg">
<line y1="6.5" x2="111" y2="6.5" stroke="black"/>
<line x1="219" y1="6.5" x2="331" y2="6.49999" stroke="black"/>
<path d="M117.81 19C117.75 19 117.72 18.97 117.72 18.91L117.756 6.544C117.756 6.496 117.78 6.472 117.828 6.472H121.284C122.388 6.472 123.258 6.808 123.894 7.48C124.542 8.152 124.866 9.064 124.866 10.216C124.866 11.068 124.698 11.806 124.362 12.43C124.026 13.054 123.588 13.534 123.048 13.87C122.508 14.206 121.92 14.374 121.284 14.374H119.916V18.91C119.916 18.97 119.886 19 119.826 19H117.81ZM119.916 12.196H121.284C121.668 12.196 121.998 12.016 122.274 11.656C122.562 11.284 122.706 10.804 122.706 10.216C122.706 9.748 122.58 9.364 122.328 9.064C122.076 8.764 121.728 8.614 121.284 8.614L119.916 8.632V12.196ZM126.019 19C125.971 19 125.947 18.97 125.947 18.91L125.983 6.544C125.983 6.496 126.007 6.472 126.055 6.472H129.691C130.339 6.472 130.933 6.634 131.473 6.958C132.025 7.27 132.463 7.696 132.787 8.236C133.111 8.764 133.273 9.364 133.273 10.036C133.273 10.48 133.207 10.882 133.075 11.242C132.943 11.59 132.787 11.89 132.607 12.142C132.427 12.382 132.265 12.562 132.121 12.682C132.769 13.402 133.093 14.248 133.093 15.22L133.111 18.91C133.111 18.97 133.081 19 133.021 19H130.987C130.939 19 130.915 18.982 130.915 18.946V15.22C130.915 14.788 130.759 14.416 130.447 14.104C130.147 13.78 129.775 13.618 129.331 13.618H128.143L128.125 18.91C128.125 18.97 128.101 19 128.053 19H126.019ZM128.143 11.458H129.691C130.063 11.458 130.393 11.32 130.681 11.044C130.969 10.768 131.113 10.432 131.113 10.036C131.113 9.652 130.969 9.322 130.681 9.046C130.405 8.77 130.075 8.632 129.691 8.632H128.143V11.458ZM137.872 19.18C137.224 19.18 136.63 19.018 136.09 18.694C135.562 18.358 135.136 17.92 134.812 17.38C134.488 16.828 134.326 16.222 134.326 15.562L134.344 9.856C134.344 9.196 134.5 8.596 134.812 8.056C135.136 7.516 135.568 7.084 136.108 6.76C136.648 6.436 137.236 6.274 137.872 6.274C138.52 6.274 139.108 6.436 139.636 6.76C140.164 7.084 140.584 7.516 140.896 8.056C141.22 8.596 141.382 9.196 141.382 9.856L141.4 15.562C141.4 16.222 141.238 16.828 140.914 17.38C140.602 17.92 140.176 18.358 139.636 18.694C139.108 19.018 138.52 19.18 137.872 19.18ZM137.872 17.002C138.232 17.002 138.544 16.858 138.808 16.57C139.084 16.27 139.222 15.934 139.222 15.562L139.204 9.856C139.204 9.46 139.078 9.124 138.826 8.848C138.574 8.572 138.256 8.434 137.872 8.434C137.5 8.434 137.182 8.572 136.918 8.848C136.654 9.112 136.522 9.448 136.522 9.856V15.562C136.522 15.958 136.654 16.3 136.918 16.588C137.182 16.864 137.5 17.002 137.872 17.002ZM145.721 19.18C145.049 19.18 144.443 19.024 143.903 18.712C143.375 18.388 142.955 17.95 142.643 17.398C142.343 16.834 142.193 16.204 142.193 15.508V14.68C142.193 14.632 142.217 14.608 142.265 14.608H144.299C144.347 14.608 144.371 14.638 144.371 14.698V15.508C144.371 15.952 144.497 16.312 144.749 16.588C145.001 16.864 145.325 17.002 145.721 17.002C146.081 17.002 146.393 16.852 146.657 16.552C146.921 16.252 147.053 15.904 147.053 15.508V6.562C147.053 6.514 147.077 6.49 147.125 6.49H149.141C149.189 6.49 149.213 6.52 149.213 6.58L149.231 15.508C149.231 16.168 149.069 16.78 148.745 17.344C148.433 17.896 148.013 18.34 147.485 18.676C146.957 19.012 146.369 19.18 145.721 19.18ZM150.663 19C150.615 19 150.591 18.97 150.591 18.91L150.609 6.544C150.609 6.496 150.633 6.472 150.681 6.472H156.459C156.507 6.472 156.531 6.502 156.531 6.562V8.578C156.531 8.626 156.507 8.65 156.459 8.65H152.769V11.458H156.459C156.507 11.458 156.531 11.482 156.531 11.53L156.549 13.564C156.549 13.612 156.525 13.636 156.477 13.636H152.769V16.786H156.477C156.525 16.786 156.549 16.816 156.549 16.876V18.928C156.549 18.976 156.525 19 156.477 19H150.663ZM159.95 19C159.902 19 159.878 18.97 159.878 18.91V8.65H157.538C157.478 8.65 157.448 8.62 157.448 8.56L157.466 6.544C157.466 6.496 157.49 6.472 157.538 6.472H164.378C164.438 6.472 164.468 6.496 164.468 6.544V8.56C164.468 8.62 164.444 8.65 164.396 8.65H162.038L162.056 18.91C162.056 18.97 162.032 19 161.984 19H159.95ZM171.359 19.18C170.711 19.18 170.117 19.018 169.577 18.694C169.049 18.358 168.623 17.92 168.299 17.38C167.975 16.828 167.813 16.222 167.813 15.562L167.831 9.856C167.831 9.196 167.987 8.596 168.299 8.056C168.623 7.516 169.055 7.084 169.595 6.76C170.135 6.436 170.723 6.274 171.359 6.274C172.007 6.274 172.595 6.436 173.123 6.76C173.651 7.084 174.071 7.516 174.383 8.056C174.707 8.596 174.869 9.196 174.869 9.856L174.887 15.562C174.887 16.222 174.725 16.828 174.401 17.38C174.089 17.92 173.663 18.358 173.123 18.694C172.595 19.018 172.007 19.18 171.359 19.18ZM171.359 17.002C171.719 17.002 172.031 16.858 172.295 16.57C172.571 16.27 172.709 15.934 172.709 15.562L172.691 9.856C172.691 9.46 172.565 9.124 172.313 8.848C172.061 8.572 171.743 8.434 171.359 8.434C170.987 8.434 170.669 8.572 170.405 8.848C170.141 9.112 170.009 9.448 170.009 9.856V15.562C170.009 15.958 170.141 16.3 170.405 16.588C170.669 16.864 170.987 17.002 171.359 17.002ZM176.327 19C176.279 19 176.255 18.97 176.255 18.91L176.291 6.544C176.291 6.496 176.315 6.472 176.363 6.472H179.999C180.647 6.472 181.241 6.634 181.781 6.958C182.333 7.27 182.771 7.696 183.095 8.236C183.419 8.764 183.581 9.364 183.581 10.036C183.581 10.48 183.515 10.882 183.383 11.242C183.251 11.59 183.095 11.89 182.915 12.142C182.735 12.382 182.573 12.562 182.429 12.682C183.077 13.402 183.401 14.248 183.401 15.22L183.419 18.91C183.419 18.97 183.389 19 183.329 19H181.295C181.247 19 181.223 18.982 181.223 18.946V15.22C181.223 14.788 181.067 14.416 180.755 14.104C180.455 13.78 180.083 13.618 179.639 13.618H178.451L178.433 18.91C178.433 18.97 178.409 19 178.361 19H176.327ZM178.451 11.458H179.999C180.371 11.458 180.701 11.32 180.989 11.044C181.277 10.768 181.421 10.432 181.421 10.036C181.421 9.652 181.277 9.322 180.989 9.046C180.713 8.77 180.383 8.632 179.999 8.632H178.451V11.458ZM185.029 19C184.969 19 184.939 18.97 184.939 18.91L184.957 6.544C184.957 6.496 184.981 6.472 185.029 6.472H187.045C187.093 6.472 187.117 6.496 187.117 6.544L187.135 18.91C187.135 18.97 187.111 19 187.063 19H185.029ZM188.79 19C188.742 19 188.718 18.97 188.718 18.91L188.736 6.544C188.736 6.496 188.76 6.472 188.808 6.472H194.586C194.634 6.472 194.658 6.502 194.658 6.562V8.578C194.658 8.626 194.634 8.65 194.586 8.65H190.896V11.458H194.586C194.634 11.458 194.658 11.482 194.658 11.53L194.676 13.564C194.676 13.612 194.652 13.636 194.604 13.636H190.896V16.786H194.604C194.652 16.786 194.676 16.816 194.676 16.876V18.928C194.676 18.976 194.652 19 194.604 19H188.79ZM196.439 19C196.343 19 196.295 18.958 196.295 18.874L196.277 6.616C196.277 6.52 196.325 6.472 196.421 6.472H198.041L201.083 13.564L200.993 6.616C200.993 6.52 201.047 6.472 201.155 6.472H202.937C203.009 6.472 203.045 6.52 203.045 6.616L203.063 18.892C203.063 18.964 203.033 19 202.973 19H201.389L198.275 12.376L198.401 18.856C198.401 18.952 198.347 19 198.239 19H196.439ZM206.426 19C206.378 19 206.354 18.97 206.354 18.91V8.65H204.014C203.954 8.65 203.924 8.62 203.924 8.56L203.942 6.544C203.942 6.496 203.966 6.472 204.014 6.472H210.854C210.914 6.472 210.944 6.496 210.944 6.544V8.56C210.944 8.62 210.92 8.65 210.872 8.65H208.514L208.532 18.91C208.532 18.97 208.508 19 208.46 19H206.426Z" fill="black"/>
</svg>
