<svg width="55" height="21" viewBox="0 0 55 21" fill="none" xmlns="http://www.w3.org/2000/svg">
<path d="M3.178 16L0.168 8.972H1.4L3.92 15.16H3.542L6.09 8.972H7.266L4.256 16H3.178ZM11.3318 16.126C10.6598 16.126 10.0718 15.9813 9.5678 15.692C9.07313 15.3933 8.69046 14.9733 8.4198 14.432C8.14913 13.8813 8.0138 13.2327 8.0138 12.486C8.0138 11.73 8.14913 11.0813 8.4198 10.54C8.69046 9.99867 9.07313 9.58333 9.5678 9.294C10.0718 8.99533 10.6598 8.846 11.3318 8.846C12.0131 8.846 12.6011 8.99533 13.0958 9.294C13.5998 9.58333 13.9871 9.99867 14.2578 10.54C14.5378 11.0813 14.6778 11.73 14.6778 12.486C14.6778 13.2327 14.5378 13.8813 14.2578 14.432C13.9871 14.9733 13.5998 15.3933 13.0958 15.692C12.6011 15.9813 12.0131 16.126 11.3318 16.126ZM11.3318 15.202C12.0038 15.202 12.5358 14.9733 12.9278 14.516C13.3198 14.0493 13.5158 13.3727 13.5158 12.486C13.5158 11.59 13.3151 10.9133 12.9138 10.456C12.5218 9.98933 11.9945 9.756 11.3318 9.756C10.6691 9.756 10.1418 9.98933 9.7498 10.456C9.3578 10.9133 9.1618 11.59 9.1618 12.486C9.1618 13.3727 9.3578 14.0493 9.7498 14.516C10.1418 14.9733 10.6691 15.202 11.3318 15.202ZM16.4458 16V8.972H17.5798V16H16.4458ZM16.3058 7.376V6.102H17.7058V7.376H16.3058ZM19.7538 16V10.666C19.7538 10.386 19.7444 10.1013 19.7258 9.812C19.7164 9.52267 19.6978 9.24267 19.6698 8.972H20.7618L20.9018 10.68L20.7058 10.694C20.7991 10.274 20.9624 9.92867 21.1958 9.658C21.4291 9.38733 21.7044 9.18667 22.0218 9.056C22.3391 8.916 22.6704 8.846 23.0158 8.846C23.1558 8.846 23.2771 8.85067 23.3798 8.86C23.4918 8.86933 23.5944 8.89267 23.6878 8.93L23.6738 9.938C23.5338 9.89133 23.4031 9.86333 23.2818 9.854C23.1698 9.83533 23.0391 9.826 22.8898 9.826C22.4791 9.826 22.1198 9.924 21.8118 10.12C21.5131 10.316 21.2844 10.568 21.1258 10.876C20.9764 11.184 20.9018 11.5107 20.9018 11.856V16H19.7538ZM28.5181 19.024V10.596C28.5181 10.3347 28.5041 10.0687 28.4761 9.798C28.4574 9.518 28.4341 9.24267 28.4061 8.972H29.4981L29.6521 10.638H29.4841C29.6334 10.0873 29.9368 9.65333 30.3941 9.336C30.8514 9.00933 31.3974 8.846 32.0321 8.846C32.6668 8.846 33.2128 8.99067 33.6701 9.28C34.1368 9.56933 34.5008 9.98467 34.7621 10.526C35.0234 11.0673 35.1541 11.7207 35.1541 12.486C35.1541 13.242 35.0234 13.8907 34.7621 14.432C34.5101 14.9733 34.1508 15.3933 33.6841 15.692C33.2174 15.9813 32.6668 16.126 32.0321 16.126C31.4068 16.126 30.8654 15.9673 30.4081 15.65C29.9508 15.3327 29.6474 14.8987 29.4981 14.348H29.6521V19.024H28.5181ZM31.8081 15.202C32.4801 15.202 33.0121 14.9733 33.4041 14.516C33.8054 14.0493 34.0061 13.3727 34.0061 12.486C34.0061 11.59 33.8054 10.9133 33.4041 10.456C33.0121 9.98933 32.4801 9.756 31.8081 9.756C31.1454 9.756 30.6134 9.98933 30.2121 10.456C29.8201 10.9133 29.6241 11.59 29.6241 12.486C29.6241 13.3727 29.8201 14.0493 30.2121 14.516C30.6134 14.9733 31.1454 15.202 31.8081 15.202ZM36.9126 16V5.696H38.0466V16H36.9126ZM42.7266 16.126C41.8959 16.126 41.2659 15.8973 40.8366 15.44C40.4166 14.9827 40.2066 14.2827 40.2066 13.34V8.972H41.3406V13.312C41.3406 13.956 41.4712 14.432 41.7326 14.74C41.9939 15.0387 42.3999 15.188 42.9506 15.188C43.5666 15.188 44.0612 14.9873 44.4346 14.586C44.8079 14.1847 44.9946 13.648 44.9946 12.976V8.972H46.1286V16H45.0226V14.418H45.2046C45.0086 14.9593 44.6912 15.3793 44.2526 15.678C43.8232 15.9767 43.3146 16.126 42.7266 16.126ZM50.6667 16.126C50.1067 16.126 49.584 16.0513 49.0987 15.902C48.6133 15.7433 48.212 15.524 47.8947 15.244L48.2867 14.446C48.632 14.7167 49.0053 14.9173 49.4067 15.048C49.8173 15.1787 50.242 15.244 50.6807 15.244C51.2407 15.244 51.6607 15.146 51.9407 14.95C52.23 14.7447 52.3747 14.4647 52.3747 14.11C52.3747 13.8393 52.2813 13.6247 52.0947 13.466C51.9173 13.298 51.6233 13.1673 51.2127 13.074L49.9107 12.808C49.3133 12.6773 48.8653 12.458 48.5667 12.15C48.268 11.8327 48.1187 11.4313 48.1187 10.946C48.1187 10.5353 48.226 10.176 48.4407 9.868C48.6553 9.55067 48.968 9.30333 49.3787 9.126C49.7893 8.93933 50.27 8.846 50.8207 8.846C51.334 8.846 51.8053 8.92533 52.2347 9.084C52.6733 9.23333 53.0373 9.45267 53.3267 9.742L52.9207 10.526C52.6407 10.2553 52.3187 10.0547 51.9547 9.924C51.6 9.784 51.2313 9.714 50.8487 9.714C50.298 9.714 49.8827 9.826 49.6027 10.05C49.332 10.2647 49.1967 10.5493 49.1967 10.904C49.1967 11.1747 49.2807 11.3987 49.4487 11.576C49.626 11.744 49.8967 11.87 50.2607 11.954L51.5627 12.22C52.1973 12.36 52.6687 12.5793 52.9767 12.878C53.294 13.1673 53.4527 13.5593 53.4527 14.054C53.4527 14.474 53.336 14.8427 53.1027 15.16C52.8693 15.468 52.5427 15.706 52.1227 15.874C51.712 16.042 51.2267 16.126 50.6667 16.126Z" fill="#555151"/>
<line x1="2" y1="20.5" x2="55" y2="20.5" stroke="#555151"/>
</svg>
